<?xml version="1.0" encoding="UTF-8"?>
<svg width="25px" height="30px" viewBox="0 0 25 30" version="1.1" xmlns="http://www.w3.org/2000/svg" xmlns:xlink="http://www.w3.org/1999/xlink">
    <!-- Generator: Sketch 43 (38999) - http://www.bohemiancoding.com/sketch -->
    <title>if_151_111060</title>
    <desc>Created with Sketch.</desc>
    <defs></defs>
    <g id="Page-1" stroke="none" stroke-width="1" fill="none" fill-rule="evenodd">
        <g id="if_151_111060" transform="translate(12.500000, 13.500000) rotate(-45.000000) translate(-12.500000, -13.500000) translate(0.000000, 1.000000)" fill="#FFFFFF">
            <path d="M2.0767624,5.96814621 C2.1479765,5.48165796 2.37317232,5.01318538 2.74680157,4.63955614 C3.67167102,3.71481723 5.17225849,3.71481723 6.09719321,4.63955614 L7.77558747,6.31808094 C8.23890339,6.78067885 8.99184073,6.78067885 9.45398172,6.31808094 L15.0820496,0.695691906 C16.0071149,-0.22924282 17.5075065,-0.22924282 18.433094,0.695691906 L24.3043734,6.56697128 C25.2293734,7.49249347 25.2293734,8.99308094 24.3043734,9.91795039 L18.6819843,15.5460183 C18.2193211,16.0082245 18.2193211,16.7616841 18.6819843,17.2246084 L20.3544386,18.9023499 C21.285248,19.8278721 21.285248,21.3282637 20.3544386,22.2533943 C19.9863577,22.6266971 19.5182115,22.852154 19.0318538,22.9232376 L2.99582245,24.9751305 C1.35267624,24.981201 0.0184073107,23.6468016 0.0247389034,22.0041775 L2.0767624,5.96814621 Z" id="Shape"></path>
        </g>
    </g>
</svg>