<?xml version="1.0" encoding="UTF-8"?>
<svg width="150px" height="134px" viewBox="0 0 150 134" version="1.1" xmlns="http://www.w3.org/2000/svg" xmlns:xlink="http://www.w3.org/1999/xlink">
    <!-- Generator: Sketch 43 (38999) - http://www.bohemiancoding.com/sketch -->
    <title>Group 2</title>
    <desc>Created with Sketch.</desc>
    <defs></defs>
    <g id="Page-1" stroke="none" stroke-width="1" fill="none" fill-rule="evenodd">
        <g id="Group-2" fill-rule="nonzero">
            <g id="if_vehicles-04_809740">
                <path d="M77.7777778,0 L22.2222222,0 C10,0 0,10 0,22.2222222 L0,105.555556 C0,108.888889 2.22222222,111.111111 5.55555556,111.111111 L16.6666667,111.111111 L6.11111111,129.444444 C5.55555556,130.555556 5.55555556,131.666667 6.66666667,132.777778 C8.33333333,133.888889 10,132.777778 10.5555556,131.666667 L22.2222222,111.111111 L27.7777778,111.111111 L17.2222222,129.444444 C16.6666667,130.555556 16.6666667,131.666667 17.7777778,132.777778 C19.4444444,133.888889 21.1111111,132.777778 21.6666667,131.666667 L33.3333333,111.111111 L66.6666667,111.111111 L78.3333333,131.111111 C78.8888889,132.222222 80.5555556,133.333333 82.2222222,132.222222 C83.3333333,131.111111 83.3333333,130 82.7777778,128.888889 L72.2222222,111.111111 L77.7777778,111.111111 L89.4444444,131.111111 C90,132.222222 91.6666667,133.333333 93.3333333,132.222222 C94.4444444,131.111111 94.4444444,130 93.8888889,128.888889 L83.3333333,111.111111 L94.4444444,111.111111 C97.7777778,111.111111 100,108.888889 100,105.555556 L100,22.2222222 C100,10 90,0 77.7777778,0 Z M88.8888889,100 L11.1111111,100 L11.1111111,22.2222222 C11.1111111,16.1111111 16.1111111,11.1111111 22.2222222,11.1111111 L77.7777778,11.1111111 C83.8888889,11.1111111 88.8888889,16.1111111 88.8888889,22.2222222 L88.8888889,100 Z" id="Shape" fill="#FFB04C"></path>
                <path d="M77.7777778,16.6666667 L22.2222222,16.6666667 C18.8888889,16.6666667 16.6666667,18.8888889 16.6666667,22.2222222 L16.6666667,66.6666667 L83.3333333,66.6666667 L83.3333333,22.2222222 C83.3333333,18.8888889 81.1111111,16.6666667 77.7777778,16.6666667 Z M77.7777778,61.1111111 L22.2222222,61.1111111 L22.2222222,22.2222222 L77.7777778,22.2222222 L77.7777778,61.1111111 Z" id="Shape" fill="#FA6657"></path>
                <path d="M27.7777778,72.2222222 C21.6666667,72.2222222 16.6666667,77.2222222 16.6666667,83.3333333 C16.6666667,89.4444444 21.6666667,94.4444444 27.7777778,94.4444444 C33.8888889,94.4444444 38.8888889,89.4444444 38.8888889,83.3333333 C38.8888889,77.2222222 33.8888889,72.2222222 27.7777778,72.2222222 Z M27.7777778,88.8888889 C24.4444444,88.8888889 22.2222222,86.6666667 22.2222222,83.3333333 C22.2222222,80 24.4444444,77.7777778 27.7777778,77.7777778 C31.1111111,77.7777778 33.3333333,80 33.3333333,83.3333333 C33.3333333,86.6666667 31.1111111,88.8888889 27.7777778,88.8888889 Z" id="Shape" fill="#FA6657"></path>
                <path d="M72.2222222,72.2222222 C66.1111111,72.2222222 61.1111111,77.2222222 61.1111111,83.3333333 C61.1111111,89.4444444 66.1111111,94.4444444 72.2222222,94.4444444 C78.3333333,94.4444444 83.3333333,89.4444444 83.3333333,83.3333333 C83.3333333,77.2222222 78.3333333,72.2222222 72.2222222,72.2222222 Z M72.2222222,88.8888889 C68.8888889,88.8888889 66.6666667,86.6666667 66.6666667,83.3333333 C66.6666667,80 68.8888889,77.7777778 72.2222222,77.7777778 C75.5555556,77.7777778 77.7777778,80 77.7777778,83.3333333 C77.7777778,86.6666667 75.5555556,88.8888889 72.2222222,88.8888889 Z" id="Shape" fill="#FA6657"></path>
            </g>
            <g id="if_shoeprints_1054979" transform="translate(50.000000, 11.000000)">
                <g id="Group" transform="translate(0.000000, 22.119306)">
                    <path d="M33.4416258,46.2763531 C34.995507,41.783369 37.9346098,34.3540471 33.7872399,20.0096772 C29.63987,5.66530725 23.5902399,0.0608280915 15.2955001,0.0608280915 C15.2955001,0.0608280915 1.04790212,-0.721642358 0.088477224,21.9119375 C-0.973249464,46.9316375 7.80535011,53.0752748 10.5592037,67.3864657 L31.3651759,61.4419023 C30.6241792,55.2567913 32.3577798,49.4062349 33.4416258,46.2763531 Z" id="Shape" fill="#303E48"></path>
                    <path d="M33.9061312,69.3412594 L11.4522707,75.7558582 C12.6162992,90.4707265 19.7774245,102.290731 32.0591691,98.9728347 C44.8468929,95.5166932 39.0018663,78.1419783 33.9918435,69.5016244 C33.9586645,69.449091 33.9365452,69.3937928 33.9061312,69.3412594 Z" id="Shape" fill="#4F5D73"></path>
                </g>
                <g id="Group" transform="translate(59.597705, 0.000000)">
                    <path d="M6.49754614,46.2487039 C4.94366489,41.7557199 2.00456211,34.326398 6.15193198,19.9820281 C10.2993019,5.63765812 16.3489321,0.033178959 24.6436718,0.033178959 C24.6436718,0.033178959 38.8912698,-0.749291491 39.8506947,21.8842884 C40.9124214,46.9039884 32.1338218,53.0476256 29.3799682,67.3588166 L8.57399599,61.4142531 C9.31499274,55.2291422 7.58139213,49.3785857 6.49754614,46.2487039 Z" id="Shape" fill="#303E48"></path>
                    <path d="M6.03304071,69.3136103 L28.4869012,75.728209 C27.3228727,90.4430773 20.1617474,102.263081 7.88000276,98.9451856 C-4.90772102,95.489044 0.937305592,78.1143292 5.9473284,69.4739753 C5.98050736,69.4214419 6.00262667,69.3661436 6.03304071,69.3136103 Z" id="Shape" fill="#4F5D73"></path>
                </g>
            </g>
        </g>
    </g>
</svg>