<?xml version="1.0" encoding="UTF-8"?>
<svg width="459px" height="323px" viewBox="0 0 459 323" version="1.1" xmlns="http://www.w3.org/2000/svg" xmlns:xlink="http://www.w3.org/1999/xlink">
    <!-- Generator: Sketch 43 (38999) - http://www.bohemiancoding.com/sketch -->
    <title>Group 2</title>
    <desc>Created with Sketch.</desc>
    <defs></defs>
    <g id="Page-1" stroke="none" stroke-width="1" fill="none" fill-rule="evenodd">
        <g id="Group-2" fill-rule="nonzero">
            <g id="rickshaw">
                <ellipse id="Oval" fill="#303E48" cx="378.476368" cy="287.411909" rx="34.6996842" ry="34.7241226"></ellipse>
                <ellipse id="Oval" fill="#E6E6E6" cx="378.476368" cy="287.411909" rx="21.216" ry="21.2309421"></ellipse>
                <ellipse id="Oval" fill="#D1D1D1" cx="378.476368" cy="287.411909" rx="7.31178947" ry="7.31693905"></ellipse>
                <path d="M370.398684,216.793419 C372.882474,216.477354 375.414579,216.314397 377.984263,216.314397 C406.943316,216.314397 431.069895,237.023341 436.381053,264.450222 C437.526316,270.362331 432.943474,276.007619 426.925474,276.007619 L346.646105,276.007619" id="Shape" fill="#FFB04C"></path>
                <ellipse id="Oval" fill="#303E48" cx="59.0991579" cy="287.411909" rx="34.6996842" ry="34.7241226"></ellipse>
                <ellipse id="Oval" fill="#E6E6E6" cx="59.0991579" cy="287.411909" rx="21.216" ry="21.2309421"></ellipse>
                <ellipse id="Oval" fill="#D1D1D1" cx="59.0991579" cy="287.411909" rx="7.31178947" ry="7.31693905"></ellipse>
                <rect id="Rectangle-path" fill="#FA6657" x="214.732368" y="180.758479" width="54.5279474" height="77.3856737"></rect>
                <rect id="Rectangle-path" fill="#F44A46" x="214.732368" y="180.758479" width="54.5279474" height="18.6021446"></rect>
                <path d="M261.822368,184.538718 L207.294421,184.538718 L207.294421,154.774929 L261.822368,154.774929 C270.035158,154.774929 276.693789,161.43825 276.693789,169.656824 L276.693789,169.656824 C276.693789,177.876293 270.036053,184.538718 261.822368,184.538718 Z" id="Shape" fill="#303E48"></path>
                <rect id="Rectangle-path" fill="#E6E6E6" x="199.861842" y="29.9562934" width="14.8714211" height="219.258364"></rect>
                <path d="M393.357632,217.884871 L405.469684,217.884871 C410.779053,217.884871 415.081842,213.578156 415.081842,208.265944 L415.081842,189.629775 C415.081842,184.316667 410.778158,180.010847 405.469684,180.010847 L393.357632,180.010847 C382.906211,180.010847 374.433053,188.489077 374.433053,198.948755 L374.433053,198.948755 C374.433053,209.406641 382.905316,217.884871 393.357632,217.884871 Z" id="Shape" fill="#FFB04C"></path>
                <g id="Group" transform="translate(430.368421, 162.061425)" fill="#FA6657">
                    <path d="M20.3015789,43.0528264 L8.58947368,43.0528264 C4.48173684,43.0528264 1.15421053,39.7211658 1.15421053,35.6123267 C1.15421053,31.5025922 4.48263158,28.171827 8.58947368,28.171827 L20.3024737,28.171827 C24.4102105,28.171827 27.7377368,31.5034876 27.7377368,35.6123267 C27.7377368,39.7211658 24.4093158,43.0528264 20.3015789,43.0528264 Z" id="Shape"></path>
                    <path d="M7.599,20.0266735 C4.65173684,20.0266735 1.86373684,18.2619052 0.697,15.3564393 C-0.833894737,11.5439666 1.01463158,7.21039038 4.82531579,5.67841746 L15.6945789,1.30902654 C19.5088421,-0.222946381 23.8348947,1.62688182 25.3666842,5.44024984 C26.8975789,9.25272249 25.0490526,13.5862987 21.2383684,15.1182716 L10.3691053,19.4876626 C9.46005263,19.8538677 8.52147368,20.0266735 7.599,20.0266735 Z" id="Shape"></path>
                    <path d="M18.4154737,69.5753874 C17.4428947,69.5753874 16.4524211,69.3828835 15.5004211,68.9763869 L4.72689474,64.3742006 C0.949315789,62.7607492 -0.805263158,58.3886722 0.807947368,54.6084328 C2.42026316,50.8308795 6.78926316,49.0741694 10.5659474,50.6867254 L21.3394737,55.2889117 C25.1170526,56.902363 26.8716316,61.27444 25.2584211,65.0546795 C24.0514211,67.8795623 21.3045789,69.5753874 18.4154737,69.5753874 Z" id="Shape"></path>
                </g>
                <path d="M353.032737,29.9607703 C367.177632,29.9607703 379.015895,20.0795001 382.032053,6.83881308 C382.809579,3.42477874 380.114632,0.197876105 376.616211,0.197876105 L78.7860526,0.197876105 C42.0463684,0.197876105 11.9858947,30.2786255 11.9858947,67.0450803 L11.9858947,150.89978 C11.9858947,182.536678 50.6018421,197.936095 72.3457368,174.970827 L97.2480526,148.670317 L97.2480526,59.8991563 C97.2480526,43.3644141 110.642263,29.9607703 127.165368,29.9607703 L303.464316,29.9607703 L303.464316,126.196605 L340.637053,134.133138 L376.353158,126.196605 C372.380526,91.4724825 361.269684,58.7324931 344.515737,29.9607703 L353.032737,29.9607703 L353.032737,29.9607703 Z" id="Shape" fill="#303E48"></path>
                <path d="M344.515737,29.9607703 L303.465211,29.9607703 L303.465211,56.7483599 L357.745316,56.7483599 C353.839789,46.8267983 349.428737,38.3978134 344.515737,29.9607703 Z" id="Shape" fill="#162630"></path>
                <path d="M359.608158,103.358479 C356.602737,84.159125 349.124526,66.3887763 340.711316,49.968641 C339.787053,48.1653719 337.925105,47.0390002 335.901211,47.0327327 L322.058737,46.9951273 C319.051526,46.987069 316.609789,49.4242579 316.609789,52.4317956 L316.609789,104.212659 C316.609789,107.21393 319.039895,109.647537 322.039947,109.650223 L354.236158,109.671712 C357.587842,109.674398 360.127105,106.671337 359.608158,103.358479 Z" id="Shape" fill="#E6E6E6"></path>
                <path d="M303.464316,126.196605 L303.464316,249.219134 L148.801895,249.219134 L148.801895,188.428193 C148.801895,166.469317 130.607421,149.015033 108.664,149.015033 L11.9858947,149.015033 L11.9858947,276.006724 L346.647,276.006724 C367.072053,239.298468 377.984263,199.593419 377.984263,155.106215 C377.984263,145.442519 377.428632,135.57647 376.358526,126.196605 L303.464316,126.196605 L303.464316,126.196605 Z" id="Shape" fill="#FFDB6C"></path>
                <path d="M380.077947,216.360957 C379.381842,216.336782 378.685737,216.314397 377.984263,216.314397 C375.414579,216.314397 372.882474,216.477354 370.398684,216.793419 L346.647,276.005829 L358.438737,276.005829 C368.229842,257.020467 375.501368,237.217635 380.077947,216.360957 Z" id="Shape" fill="#E89B46"></path>
                <g id="Group" transform="translate(11.631579, 126.143350)" fill="#FFB04C">
                    <path d="M366.265,22.8716834 C366.081579,14.9351504 365.570684,7.45883602 364.726053,0.0532556367 L291.832737,0.0532556367 L291.832737,22.8716834 L366.265,22.8716834 L366.265,22.8716834 Z" id="Shape"></path>
                    <path d="M133.441947,45.6901112 C127.027579,32.153953 113.031211,22.8716834 97.0342105,22.8716834 L0.354315789,22.8716834 L0.354315789,45.6901112 L133.441947,45.6901112 Z" id="Shape"></path>
                </g>
                <path d="M337.167263,158.995689 L328.330842,158.995689 C324.223105,158.995689 320.895579,155.664028 320.895579,151.555189 C320.895579,147.445455 324.224,144.114689 328.330842,144.114689 L337.167263,144.114689 C341.275,144.114689 344.602526,147.44635 344.602526,151.555189 C344.603421,155.664028 341.274105,158.995689 337.167263,158.995689 Z" id="Shape" fill="#FA6657"></path>
                <path d="M6.47163158,276.006724 C2.60189474,276.006724 -0.417842105,272.456594 0.0474210526,268.612783 C3.61294737,239.146256 28.6906316,216.315293 59.0982632,216.315293 C91.9512105,216.315293 118.583947,243.131534 118.583947,276.008515 L6.47163158,276.008515 L6.47163158,276.006724 Z" id="Shape" fill="#FFB04C"></path>
            </g>
        </g>
    </g>
</svg>