<?xml version="1.0" encoding="UTF-8"?>
<svg width="512px" height="401px" viewBox="0 0 512 401" version="1.1" xmlns="http://www.w3.org/2000/svg" xmlns:xlink="http://www.w3.org/1999/xlink">
    <!-- Generator: Sketch 43 (38999) - http://www.bohemiancoding.com/sketch -->
    <title>if_shopping_cart_465074</title>
    <desc>Created with Sketch.</desc>
    <defs></defs>
    <g id="Page-1" stroke="none" stroke-width="1" fill="none" fill-rule="evenodd">
        <g id="if_shopping_cart_465074" transform="translate(-1.000000, 0.000000)" fill-rule="nonzero" fill="#E6007E">
            <ellipse id="Oval" cx="243.5" cy="357.7" rx="44.3" ry="43.3"></ellipse>
            <ellipse id="Oval" cx="380.9" cy="357.7" rx="44.3" ry="43.3"></ellipse>
            <path d="M467.9,58 L161.1,58 C160.4,58 159.7,58.2 159,58.2 L151.2,19.2 C149.8,8.9 142.7,2.7 129.4,0.9 L17.5,0.9 C-8,1 -8.7,63.8 49.6,55.7 L106,55.2 L116,102.1 L116,102.2 L146.4,252.4 C146.4,276.7 166.7,296.6 191.5,296.6 L437.5,296.6 C462.3,296.6 482.6,276.7 482.6,252.4 L513,102.2 C513,77.9 492.7,58 467.9,58 Z M204.3,252.5 L203.3,252.6 C195,253.6 187.2,247.9 186.1,240 L168.7,121.7 C167.5,113.6 173.6,106.1 182.2,105.1 L183.2,105 C191.5,104 199.3,109.7 200.4,117.6 L217.8,235.9 C219,244 212.9,251.5 204.3,252.5 Z M282.9,252.9 L281.8,253 C273.4,253.6 265.9,247.5 265.3,239.5 L255.4,120.6 C254.7,112.5 261.2,105.3 269.8,104.8 L270.9,104.7 C279.3,104.1 286.8,110.2 287.4,118.2 L297.3,237.1 C298,245.3 291.5,252.4 282.9,252.9 Z M374,238.7 C373.9,246.8 366.8,253.3 358.3,253.2 L357.2,253.2 C348.7,253.1 341.8,246.4 341.9,238.3 L343.9,119.1 C344,111 351.1,104.5 359.6,104.6 L360.7,104.6 C369.2,104.7 376.1,111.4 376,119.5 L374,238.7 Z M464.7,122.3 L444.4,240.2 C443.1,248 435.2,253.5 426.9,252.4 L425.9,252.3 C417.3,251.1 411.4,243.5 412.8,235.4 L433,117.5 C434.3,109.7 442.2,104.2 450.5,105.3 L451.5,105.4 C460.2,106.6 466.1,114.2 464.7,122.3 Z" id="Shape"></path>
        </g>
    </g>
</svg>