<?xml version="1.0" encoding="UTF-8"?>
<svg width="78px" height="78px" viewBox="0 0 78 78" version="1.1" xmlns="http://www.w3.org/2000/svg" xmlns:xlink="http://www.w3.org/1999/xlink">
    <!-- Generator: Sketch 43 (38999) - http://www.bohemiancoding.com/sketch -->
    <title>EN</title>
    <desc>Created with Sketch.</desc>
    <defs>
        <filter x="-10.0%" y="-7.1%" width="120.0%" height="120.0%" filterUnits="objectBoundingBox" id="filter-1">
            <feOffset dx="0" dy="2" in="SourceAlpha" result="shadowOffsetOuter1"></feOffset>
            <feGaussianBlur stdDeviation="2" in="shadowOffsetOuter1" result="shadowBlurOuter1"></feGaussianBlur>
            <feColorMatrix values="0 0 0 0 0   0 0 0 0 0   0 0 0 0 0  0 0 0 0.5 0" type="matrix" in="shadowBlurOuter1" result="shadowMatrixOuter1"></feColorMatrix>
            <feMerge>
                <feMergeNode in="shadowMatrixOuter1"></feMergeNode>
                <feMergeNode in="SourceGraphic"></feMergeNode>
            </feMerge>
        </filter>
        <circle id="path-2" cx="35" cy="35" r="35"></circle>
        <path d="M75,37.5 L150,37.5 L150,75 L75,37.5 Z M75,37.5 L75,75 L0,75 L75,37.5 Z M75,37.5 L0,37.5 L0,0 L75,37.5 Z M75,37.5 L75,0 L150,0 L75,37.5 Z" id="path-4"></path>
    </defs>
    <g id="Page-1" stroke="none" stroke-width="1" fill="none" fill-rule="evenodd">
        <g id="EN" filter="url(#filter-1)" transform="translate(4.000000, 2.000000)">
            <mask id="mask-3" fill="white">
                <use xlink:href="#path-2"></use>
            </mask>
            <g id="Oval"></g>
            <g id="en" mask="url(#mask-3)">
                <g transform="translate(-40.000000, -2.000000)">
                    <polygon id="Shape" stroke="none" fill="#00247D" fill-rule="nonzero" points="0 0 0 75 150 75 150 0"></polygon>
                    <path d="M0,0 L150,75 M150,0 L0,75" id="Shape" stroke="#FFFFFF" stroke-width="6" fill="#000000" fill-rule="nonzero"></path>
                    <g id="Clipped" stroke="none" stroke-width="1" fill="none" fill-rule="evenodd">
                        <mask id="mask-5" fill="white">
                            <use xlink:href="#path-4"></use>
                        </mask>
                        <g id="Shape"></g>
                        <path d="M0,0 L150,75 M150,0 L0,75" id="Shape" stroke="#CF142B" stroke-width="4" fill="#000000" fill-rule="nonzero" mask="url(#mask-5)"></path>
                    </g>
                    <path d="M75,0 L75,75 M0,37.5 L150,37.5" id="Shape" stroke="#FFFFFF" stroke-width="10" fill="#000000" fill-rule="nonzero"></path>
                    <path d="M75,0 L75,75 M0,37.5 L150,37.5" id="Shape" stroke="#CF142B" stroke-width="6" fill="#000000" fill-rule="nonzero"></path>
                </g>
            </g>
        </g>
    </g>
</svg>