<?xml version="1.0" encoding="UTF-8"?>
<svg width="1500px" height="908px" viewBox="0 0 1500 908" version="1.1" xmlns="http://www.w3.org/2000/svg" xmlns:xlink="http://www.w3.org/1999/xlink">
    <!-- Generator: Sketch 43 (38999) - http://www.bohemiancoding.com/sketch -->
    <title>usflag</title>
    <desc>Created with Sketch.</desc>
    <defs></defs>
    <g id="Page-1" stroke="none" stroke-width="1" fill="none" fill-rule="evenodd">
        <g id="usflag" transform="translate(0.000000, 59.000000)" fill-rule="nonzero">
            <rect id="Rectangle-path" fill="#B22234" x="0" y="0" width="1500" height="789.473684"></rect>
            <path d="M0,91.0931174 L1500,91.0931174 M1500,212.550607 L0,212.550607 M0,334.008097 L1500,334.008097 M1500,455.465587 L0,455.465587 M0,576.923077 L1500,576.923077 M1500,698.380567 L0,698.380567" id="Shape" stroke="#FFFFFF" stroke-width="300" fill="#000000"></path>
            <rect id="Rectangle-path" fill="#3C3B6E" x="0" y="0" width="600" height="425.101215"></rect>
            <g id="Group" transform="translate(26.720648, 18.218623)" fill="#FFFFFF">
                <g id="s18">
                    <g id="s9">
                        <g id="s5">
                            <g id="s4">
                                <polygon id="s" points="23.2793522 0 37.5575364 43.9437326 0.176764777 16.7850123 46.3819397 16.7850123 9.00116802 43.9437326"></polygon>
                                <g id="s-link" transform="translate(0.000000, 85.020243)">
                                    <polygon id="s" points="23.2793522 0 37.5575364 43.9437326 0.176764777 16.7850123 46.3819397 16.7850123 9.00116802 43.9437326"></polygon>
                                </g>
                                <g id="s-link" transform="translate(0.000000, 170.040486)">
                                    <polygon id="s" points="23.2793522 0 37.5575364 43.9437326 0.176764777 16.7850123 46.3819397 16.7850123 9.00116802 43.9437326"></polygon>
                                </g>
                                <g id="s-link" transform="translate(0.000000, 255.060729)">
                                    <polygon id="s" points="23.2793522 0 37.5575364 43.9437326 0.176764777 16.7850123 46.3819397 16.7850123 9.00116802 43.9437326"></polygon>
                                </g>
                            </g>
                            <g id="s-link" transform="translate(0.000000, 340.080972)">
                                <polygon id="s" points="23.2793522 0 37.5575364 43.9437326 0.176764777 16.7850123 46.3819397 16.7850123 9.00116802 43.9437326"></polygon>
                            </g>
                        </g>
                        <g id="s4-link" transform="translate(50.000000, 42.510121)">
                            <g id="s4">
                                <polygon id="s" points="23.2793522 0 37.5575364 43.9437326 0.176764777 16.7850123 46.3819397 16.7850123 9.00116802 43.9437326"></polygon>
                                <g id="s-link" transform="translate(0.000000, 85.020243)">
                                    <polygon id="s" points="23.2793522 0 37.5575364 43.9437326 0.176764777 16.7850123 46.3819397 16.7850123 9.00116802 43.9437326"></polygon>
                                </g>
                                <g id="s-link" transform="translate(0.000000, 170.040486)">
                                    <polygon id="s" points="23.2793522 0 37.5575364 43.9437326 0.176764777 16.7850123 46.3819397 16.7850123 9.00116802 43.9437326"></polygon>
                                </g>
                                <g id="s-link" transform="translate(0.000000, 255.060729)">
                                    <polygon id="s" points="23.2793522 0 37.5575364 43.9437326 0.176764777 16.7850123 46.3819397 16.7850123 9.00116802 43.9437326"></polygon>
                                </g>
                            </g>
                        </g>
                    </g>
                    <g id="s9-link" transform="translate(100.000000, 0.000000)">
                        <g id="s9">
                            <g id="s5">
                                <g id="s4">
                                    <polygon id="s" points="23.2793522 0 37.5575364 43.9437326 0.176764777 16.7850123 46.3819397 16.7850123 9.00116802 43.9437326"></polygon>
                                    <g id="s-link" transform="translate(0.000000, 85.020243)">
                                        <polygon id="s" points="23.2793522 0 37.5575364 43.9437326 0.176764777 16.7850123 46.3819397 16.7850123 9.00116802 43.9437326"></polygon>
                                    </g>
                                    <g id="s-link" transform="translate(0.000000, 170.040486)">
                                        <polygon id="s" points="23.2793522 0 37.5575364 43.9437326 0.176764777 16.7850123 46.3819397 16.7850123 9.00116802 43.9437326"></polygon>
                                    </g>
                                    <g id="s-link" transform="translate(0.000000, 255.060729)">
                                        <polygon id="s" points="23.2793522 0 37.5575364 43.9437326 0.176764777 16.7850123 46.3819397 16.7850123 9.00116802 43.9437326"></polygon>
                                    </g>
                                </g>
                                <g id="s-link" transform="translate(0.000000, 340.080972)">
                                    <polygon id="s" points="23.2793522 0 37.5575364 43.9437326 0.176764777 16.7850123 46.3819397 16.7850123 9.00116802 43.9437326"></polygon>
                                </g>
                            </g>
                            <g id="s4-link" transform="translate(50.000000, 42.510121)">
                                <g id="s4">
                                    <polygon id="s" points="23.2793522 0 37.5575364 43.9437326 0.176764777 16.7850123 46.3819397 16.7850123 9.00116802 43.9437326"></polygon>
                                    <g id="s-link" transform="translate(0.000000, 85.020243)">
                                        <polygon id="s" points="23.2793522 0 37.5575364 43.9437326 0.176764777 16.7850123 46.3819397 16.7850123 9.00116802 43.9437326"></polygon>
                                    </g>
                                    <g id="s-link" transform="translate(0.000000, 170.040486)">
                                        <polygon id="s" points="23.2793522 0 37.5575364 43.9437326 0.176764777 16.7850123 46.3819397 16.7850123 9.00116802 43.9437326"></polygon>
                                    </g>
                                    <g id="s-link" transform="translate(0.000000, 255.060729)">
                                        <polygon id="s" points="23.2793522 0 37.5575364 43.9437326 0.176764777 16.7850123 46.3819397 16.7850123 9.00116802 43.9437326"></polygon>
                                    </g>
                                </g>
                            </g>
                        </g>
                    </g>
                </g>
                <g id="s18-link" transform="translate(200.000000, 0.000000)">
                    <g id="s18">
                        <g id="s9">
                            <g id="s5">
                                <g id="s4">
                                    <polygon id="s" points="23.2793522 0 37.5575364 43.9437326 0.176764777 16.7850123 46.3819397 16.7850123 9.00116802 43.9437326"></polygon>
                                    <g id="s-link" transform="translate(0.000000, 85.020243)">
                                        <polygon id="s" points="23.2793522 0 37.5575364 43.9437326 0.176764777 16.7850123 46.3819397 16.7850123 9.00116802 43.9437326"></polygon>
                                    </g>
                                    <g id="s-link" transform="translate(0.000000, 170.040486)">
                                        <polygon id="s" points="23.2793522 0 37.5575364 43.9437326 0.176764777 16.7850123 46.3819397 16.7850123 9.00116802 43.9437326"></polygon>
                                    </g>
                                    <g id="s-link" transform="translate(0.000000, 255.060729)">
                                        <polygon id="s" points="23.2793522 0 37.5575364 43.9437326 0.176764777 16.7850123 46.3819397 16.7850123 9.00116802 43.9437326"></polygon>
                                    </g>
                                </g>
                                <g id="s-link" transform="translate(0.000000, 340.080972)">
                                    <polygon id="s" points="23.2793522 0 37.5575364 43.9437326 0.176764777 16.7850123 46.3819397 16.7850123 9.00116802 43.9437326"></polygon>
                                </g>
                            </g>
                            <g id="s4-link" transform="translate(50.000000, 42.510121)">
                                <g id="s4">
                                    <polygon id="s" points="23.2793522 0 37.5575364 43.9437326 0.176764777 16.7850123 46.3819397 16.7850123 9.00116802 43.9437326"></polygon>
                                    <g id="s-link" transform="translate(0.000000, 85.020243)">
                                        <polygon id="s" points="23.2793522 0 37.5575364 43.9437326 0.176764777 16.7850123 46.3819397 16.7850123 9.00116802 43.9437326"></polygon>
                                    </g>
                                    <g id="s-link" transform="translate(0.000000, 170.040486)">
                                        <polygon id="s" points="23.2793522 0 37.5575364 43.9437326 0.176764777 16.7850123 46.3819397 16.7850123 9.00116802 43.9437326"></polygon>
                                    </g>
                                    <g id="s-link" transform="translate(0.000000, 255.060729)">
                                        <polygon id="s" points="23.2793522 0 37.5575364 43.9437326 0.176764777 16.7850123 46.3819397 16.7850123 9.00116802 43.9437326"></polygon>
                                    </g>
                                </g>
                            </g>
                        </g>
                        <g id="s9-link" transform="translate(100.000000, 0.000000)">
                            <g id="s9">
                                <g id="s5">
                                    <g id="s4">
                                        <polygon id="s" points="23.2793522 0 37.5575364 43.9437326 0.176764777 16.7850123 46.3819397 16.7850123 9.00116802 43.9437326"></polygon>
                                        <g id="s-link" transform="translate(0.000000, 85.020243)">
                                            <polygon id="s" points="23.2793522 0 37.5575364 43.9437326 0.176764777 16.7850123 46.3819397 16.7850123 9.00116802 43.9437326"></polygon>
                                        </g>
                                        <g id="s-link" transform="translate(0.000000, 170.040486)">
                                            <polygon id="s" points="23.2793522 0 37.5575364 43.9437326 0.176764777 16.7850123 46.3819397 16.7850123 9.00116802 43.9437326"></polygon>
                                        </g>
                                        <g id="s-link" transform="translate(0.000000, 255.060729)">
                                            <polygon id="s" points="23.2793522 0 37.5575364 43.9437326 0.176764777 16.7850123 46.3819397 16.7850123 9.00116802 43.9437326"></polygon>
                                        </g>
                                    </g>
                                    <g id="s-link" transform="translate(0.000000, 340.080972)">
                                        <polygon id="s" points="23.2793522 0 37.5575364 43.9437326 0.176764777 16.7850123 46.3819397 16.7850123 9.00116802 43.9437326"></polygon>
                                    </g>
                                </g>
                                <g id="s4-link" transform="translate(50.000000, 42.510121)">
                                    <g id="s4">
                                        <polygon id="s" points="23.2793522 0 37.5575364 43.9437326 0.176764777 16.7850123 46.3819397 16.7850123 9.00116802 43.9437326"></polygon>
                                        <g id="s-link" transform="translate(0.000000, 85.020243)">
                                            <polygon id="s" points="23.2793522 0 37.5575364 43.9437326 0.176764777 16.7850123 46.3819397 16.7850123 9.00116802 43.9437326"></polygon>
                                        </g>
                                        <g id="s-link" transform="translate(0.000000, 170.040486)">
                                            <polygon id="s" points="23.2793522 0 37.5575364 43.9437326 0.176764777 16.7850123 46.3819397 16.7850123 9.00116802 43.9437326"></polygon>
                                        </g>
                                        <g id="s-link" transform="translate(0.000000, 255.060729)">
                                            <polygon id="s" points="23.2793522 0 37.5575364 43.9437326 0.176764777 16.7850123 46.3819397 16.7850123 9.00116802 43.9437326"></polygon>
                                        </g>
                                    </g>
                                </g>
                            </g>
                        </g>
                    </g>
                </g>
                <g id="s9-link" transform="translate(400.000000, 0.000000)">
                    <g id="s9">
                        <g id="s5">
                            <g id="s4">
                                <polygon id="s" points="23.2793522 0 37.5575364 43.9437326 0.176764777 16.7850123 46.3819397 16.7850123 9.00116802 43.9437326"></polygon>
                                <g id="s-link" transform="translate(0.000000, 85.020243)">
                                    <polygon id="s" points="23.2793522 0 37.5575364 43.9437326 0.176764777 16.7850123 46.3819397 16.7850123 9.00116802 43.9437326"></polygon>
                                </g>
                                <g id="s-link" transform="translate(0.000000, 170.040486)">
                                    <polygon id="s" points="23.2793522 0 37.5575364 43.9437326 0.176764777 16.7850123 46.3819397 16.7850123 9.00116802 43.9437326"></polygon>
                                </g>
                                <g id="s-link" transform="translate(0.000000, 255.060729)">
                                    <polygon id="s" points="23.2793522 0 37.5575364 43.9437326 0.176764777 16.7850123 46.3819397 16.7850123 9.00116802 43.9437326"></polygon>
                                </g>
                            </g>
                            <g id="s-link" transform="translate(0.000000, 340.080972)">
                                <polygon id="s" points="23.2793522 0 37.5575364 43.9437326 0.176764777 16.7850123 46.3819397 16.7850123 9.00116802 43.9437326"></polygon>
                            </g>
                        </g>
                        <g id="s4-link" transform="translate(50.000000, 42.510121)">
                            <g id="s4">
                                <polygon id="s" points="23.2793522 0 37.5575364 43.9437326 0.176764777 16.7850123 46.3819397 16.7850123 9.00116802 43.9437326"></polygon>
                                <g id="s-link" transform="translate(0.000000, 85.020243)">
                                    <polygon id="s" points="23.2793522 0 37.5575364 43.9437326 0.176764777 16.7850123 46.3819397 16.7850123 9.00116802 43.9437326"></polygon>
                                </g>
                                <g id="s-link" transform="translate(0.000000, 170.040486)">
                                    <polygon id="s" points="23.2793522 0 37.5575364 43.9437326 0.176764777 16.7850123 46.3819397 16.7850123 9.00116802 43.9437326"></polygon>
                                </g>
                                <g id="s-link" transform="translate(0.000000, 255.060729)">
                                    <polygon id="s" points="23.2793522 0 37.5575364 43.9437326 0.176764777 16.7850123 46.3819397 16.7850123 9.00116802 43.9437326"></polygon>
                                </g>
                            </g>
                        </g>
                    </g>
                </g>
                <g id="s5-link" transform="translate(500.000000, 0.000000)">
                    <g id="s5">
                        <g id="s4">
                            <polygon id="s" points="23.2793522 0 37.5575364 43.9437326 0.176764777 16.7850123 46.3819397 16.7850123 9.00116802 43.9437326"></polygon>
                            <g id="s-link" transform="translate(0.000000, 85.020243)">
                                <polygon id="s" points="23.2793522 0 37.5575364 43.9437326 0.176764777 16.7850123 46.3819397 16.7850123 9.00116802 43.9437326"></polygon>
                            </g>
                            <g id="s-link" transform="translate(0.000000, 170.040486)">
                                <polygon id="s" points="23.2793522 0 37.5575364 43.9437326 0.176764777 16.7850123 46.3819397 16.7850123 9.00116802 43.9437326"></polygon>
                            </g>
                            <g id="s-link" transform="translate(0.000000, 255.060729)">
                                <polygon id="s" points="23.2793522 0 37.5575364 43.9437326 0.176764777 16.7850123 46.3819397 16.7850123 9.00116802 43.9437326"></polygon>
                            </g>
                        </g>
                        <g id="s-link" transform="translate(0.000000, 340.080972)">
                            <polygon id="s" points="23.2793522 0 37.5575364 43.9437326 0.176764777 16.7850123 46.3819397 16.7850123 9.00116802 43.9437326"></polygon>
                        </g>
                    </g>
                </g>
            </g>
        </g>
    </g>
</svg>